<svg width="16" height="16" viewBox="0 0 16 16" fill="none" xmlns="http://www.w3.org/2000/svg">
<path d="M12.8193 11.3092C12.2089 11.3092 11.6627 11.5502 11.245 11.9277L5.51811 8.59438C5.55827 8.40964 5.59039 8.2249 5.59039 8.03213C5.59039 7.83936 5.55827 7.65462 5.51811 7.46988L11.1808 4.16867C11.6145 4.57028 12.1848 4.81928 12.8193 4.81928C14.1526 4.81928 15.2289 3.74297 15.2289 2.40964C15.2289 1.07631 14.1526 0 12.8193 0C11.486 0 10.4097 1.07631 10.4097 2.40964C10.4097 2.60241 10.4418 2.78715 10.482 2.97189L4.81931 6.27309C4.38558 5.87149 3.81529 5.62249 3.18076 5.62249C1.84742 5.62249 0.771118 6.69879 0.771118 8.03213C0.771118 9.36546 1.84742 10.4418 3.18076 10.4418C3.81529 10.4418 4.38558 10.1928 4.81931 9.79116L10.5382 13.1325C10.498 13.3012 10.4739 13.4779 10.4739 13.6546C10.4739 14.9478 11.5261 16 12.8193 16C14.1125 16 15.1647 14.9478 15.1647 13.6546C15.1647 12.3614 14.1125 11.3092 12.8193 11.3092Z" fill="#EDEDF5"/>
</svg>
